solid OpenSCAD_Model
  facet normal 0 -0 -1
    outer loop
      vertex 7.04137 -16.9994 0
      vertex 7.42406 -17.9232 0
      vertex 5.63152 -18.5646 0
    endloop
  endfacet
  facet normal 0 -0 -1
    outer loop
      vertex 15.299 -10.2225 0
      vertex 16.1305 -10.7781 0
      vertex 14.9964 -12.3072 0
    endloop
  endfacet
  facet normal 0 0 -1
    outer loop
      vertex 8.67369 -16.2273 0
      vertex 10.2225 -15.299 0
      vertex 10.7781 -16.1305 0
    endloop
  endfacet
  facet normal 0 0 -1
    outer loop
      vertex 11.6728 -14.2234 0
      vertex 13.0108 -13.0108 0
      vertex 13.7179 -13.7179 0
    endloop
  endfacet
  facet normal 0 0 -1
    outer loop
      vertex 13.7179 -13.7179 0
      vertex 14.2234 -11.6728 0
      vertex 14.9964 -12.3072 0
    endloop
  endfacet
  facet normal 0 0 -1
    outer loop
      vertex 15.299 -10.2225 0
      vertex 16.1794 -10.6965 0
      vertex 16.1305 -10.7781 0
    endloop
  endfacet
  facet normal 0 0 -1
    outer loop
      vertex 10.2225 -15.299 0
      vertex 11.6728 -14.2234 0
      vertex 12.3072 -14.9964 0
    endloop
  endfacet
  facet normal -0 0 -1
    outer loop
      vertex 9.1451 -17.1093 0
      vertex 7.42406 -17.9232 0
      vertex 8.67369 -16.2273 0
    endloop
  endfacet
  facet normal 0 -0 -1
    outer loop
      vertex 15.3454 -10.1452 0
      vertex 16.1794 -10.6965 0
      vertex 15.299 -10.2225 0
    endloop
  endfacet
  facet normal 0 0 -1
    outer loop
      vertex 1.80351 -18.3114 0
      vertex 3.58966 -18.0464 0
      vertex 3.78474 -19.0272 0
    endloop
  endfacet
  facet normal 0 0 -1
    outer loop
      vertex 15.299 10.2225 0
      vertex 16.1794 10.6965 0
      vertex 15.3454 10.1452 0
    endloop
  endfacet
  facet normal -0 0 -1
    outer loop
      vertex -1.80351 18.3114 0
      vertex -3.58966 18.0464 0
      vertex -3.78474 19.0272 0
    endloop
  endfacet
  facet normal 0 -0 -1
    outer loop
      vertex 13.7179 13.7179 0
      vertex 14.2234 11.6728 0
      vertex 13.0108 13.0108 0
    endloop
  endfacet
  facet normal -0 0 -1
    outer loop
      vertex 12.3072 14.9964 0
      vertex 11.6728 14.2234 0
      vertex 10.2225 15.299 0
    endloop
  endfacet
  facet normal -0 0 -1
    outer loop
      vertex 10.7781 16.1305 0
      vertex 10.2225 15.299 0
      vertex 8.67369 16.2273 0
    endloop
  endfacet
  facet normal -0 0 -1
    outer loop
      vertex 9.1451 17.1093 0
      vertex 8.67369 16.2273 0
      vertex 7.42406 17.9232 0
    endloop
  endfacet
  facet normal -0 0 -1
    outer loop
      vertex 7.42406 17.9232 0
      vertex 7.04137 16.9994 0
      vertex 5.63152 18.5646 0
    endloop
  endfacet
  facet normal 0 0 -1
    outer loop
      vertex 5.63152 18.5646 0
      vertex 5.34123 17.6077 0
      vertex 3.58966 18.0464 0
    endloop
  endfacet
  facet normal 0 0 -1
    outer loop
      vertex 3.78474 19.0272 0
      vertex 3.58966 18.0464 0
      vertex 1.80351 18.3114 0
    endloop
  endfacet
  facet normal 0 0 -1
    outer loop
      vertex 1.90152 19.3066 0
      vertex 1.80351 18.3114 0
      vertex 0 18.4 0
    endloop
  endfacet
  facet normal 0 -0 -1
    outer loop
      vertex 0 19.4 0
      vertex 0 18.4 0
      vertex -1.90152 19.3066 0
    endloop
  endfacet
  facet normal 0 -0 -1
    outer loop
      vertex -1.90152 19.3066 0
      vertex -1.80351 18.3114 0
      vertex -3.78474 19.0272 0
    endloop
  endfacet
  facet normal -0 0 -1
    outer loop
      vertex -3.58966 18.0464 0
      vertex -5.34123 17.6077 0
      vertex -5.63152 18.5646 0
    endloop
  endfacet
  facet normal 0 0 -1
    outer loop
      vertex -5.63152 18.5646 0
      vertex -7.04137 16.9994 0
      vertex -7.42406 17.9232 0
    endloop
  endfacet
  facet normal 0 0 -1
    outer loop
      vertex -7.42406 17.9232 0
      vertex -8.67369 16.2273 0
      vertex -9.1451 17.1093 0
    endloop
  endfacet
  facet normal 0 0 -1
    outer loop
      vertex -8.67369 16.2273 0
      vertex -10.2225 15.299 0
      vertex -10.7781 16.1305 0
    endloop
  endfacet
  facet normal 0 0 -1
    outer loop
      vertex -10.2225 15.299 0
      vertex -11.6728 14.2234 0
      vertex -12.3072 14.9964 0
    endloop
  endfacet
  facet normal 0 0 -1
    outer loop
      vertex -11.6728 14.2234 0
      vertex -13.0108 13.0108 0
      vertex -13.7179 13.7179 0
    endloop
  endfacet
  facet normal 0 0 -1
    outer loop
      vertex -13.7179 13.7179 0
      vertex -14.2234 11.6728 0
      vertex -14.9964 12.3072 0
    endloop
  endfacet
  facet normal 0 0 -1
    outer loop
      vertex -14.9964 12.3072 0
      vertex -15.299 10.2225 0
      vertex -16.1305 10.7781 0
    endloop
  endfacet
  facet normal 0 0 -1
    outer loop
      vertex -16.1305 10.7781 0
      vertex -16.2273 8.67369 0
      vertex -17.1093 9.1451 0
    endloop
  endfacet
  facet normal 0 0 -1
    outer loop
      vertex -16.2273 8.67369 0
      vertex -16.9994 7.04137 0
      vertex -17.9232 7.42406 0
    endloop
  endfacet
  facet normal 0 0 -1
    outer loop
      vertex -16.9994 7.04137 0
      vertex -17.6077 5.34123 0
      vertex -18.5646 5.63152 0
    endloop
  endfacet
  facet normal 0 -0 -1
    outer loop
      vertex -18.5646 5.63152 0
      vertex -18.0464 3.58966 0
      vertex -19.0272 3.78474 0
    endloop
  endfacet
  facet normal 0 -0 -1
    outer loop
      vertex -19.0272 3.78474 0
      vertex -18.3114 1.80351 0
      vertex -19.3066 1.90152 0
    endloop
  endfacet
  facet normal 0 -0 -1
    outer loop
      vertex -19.3066 1.90152 0
      vertex -18.4 0 0
      vertex -19.4 0 0
    endloop
  endfacet
  facet normal 0 -0 -1
    outer loop
      vertex -18.4 0 0
      vertex -18.3114 -1.80351 0
      vertex -19.3066 -1.90152 0
    endloop
  endfacet
  facet normal -0 0 -1
    outer loop
      vertex 13.7179 13.7179 0
      vertex 13.0108 13.0108 0
      vertex 11.6728 14.2234 0
    endloop
  endfacet
  facet normal 0 0 -1
    outer loop
      vertex -19.0272 -3.78474 0
      vertex -18.0464 -3.58966 0
      vertex -18.5646 -5.63152 0
    endloop
  endfacet
  facet normal 0 0 -1
    outer loop
      vertex -18.5646 -5.63152 0
      vertex -17.6077 -5.34123 0
      vertex -16.9994 -7.04137 0
    endloop
  endfacet
  facet normal 0 0 -1
    outer loop
      vertex -17.9232 -7.42406 0
      vertex -16.9994 -7.04137 0
      vertex -16.2273 -8.67369 0
    endloop
  endfacet
  facet normal 0 0 -1
    outer loop
      vertex -17.1093 -9.1451 0
      vertex -16.2273 -8.67369 0
      vertex -16.1305 -10.7781 0
    endloop
  endfacet
  facet normal 0 0 -1
    outer loop
      vertex -16.1305 -10.7781 0
      vertex -15.299 -10.2225 0
      vertex -14.9964 -12.3072 0
    endloop
  endfacet
  facet normal 0 0 -1
    outer loop
      vertex -14.9964 -12.3072 0
      vertex -14.2234 -11.6728 0
      vertex -13.7179 -13.7179 0
    endloop
  endfacet
  facet normal 0 0 -1
    outer loop
      vertex -13.7179 -13.7179 0
      vertex -13.0108 -13.0108 0
      vertex -11.6728 -14.2234 0
    endloop
  endfacet
  facet normal 0 0 -1
    outer loop
      vertex -12.3072 -14.9964 0
      vertex -11.6728 -14.2234 0
      vertex -10.2225 -15.299 0
    endloop
  endfacet
  facet normal 0 0 -1
    outer loop
      vertex -10.7781 -16.1305 0
      vertex -10.2225 -15.299 0
      vertex -8.67369 -16.2273 0
    endloop
  endfacet
  facet normal 0 0 -1
    outer loop
      vertex -9.1451 -17.1093 0
      vertex -8.67369 -16.2273 0
      vertex -7.42406 -17.9232 0
    endloop
  endfacet
  facet normal 0 0 -1
    outer loop
      vertex -7.42406 -17.9232 0
      vertex -7.04137 -16.9994 0
      vertex -5.63152 -18.5646 0
    endloop
  endfacet
  facet normal 0 0 -1
    outer loop
      vertex -5.63152 -18.5646 0
      vertex -5.34123 -17.6077 0
      vertex -3.58966 -18.0464 0
    endloop
  endfacet
  facet normal 0 0 -1
    outer loop
      vertex -3.78474 -19.0272 0
      vertex -3.58966 -18.0464 0
      vertex -1.80351 -18.3114 0
    endloop
  endfacet
  facet normal 0 0 -1
    outer loop
      vertex -1.90152 -19.3066 0
      vertex -3.78474 -19.0272 0
      vertex -1.80351 -18.3114 0
    endloop
  endfacet
  facet normal 0 0 -1
    outer loop
      vertex 0 -19.4 0
      vertex -1.90152 -19.3066 0
      vertex 0 -18.4 0
    endloop
  endfacet
  facet normal -0 0 -1
    outer loop
      vertex 1.90152 -19.3066 0
      vertex 0 -19.4 0
      vertex 0 -18.4 0
    endloop
  endfacet
  facet normal -0 0 -1
    outer loop
      vertex 0 -18.4 0
      vertex -1.90152 -19.3066 0
      vertex -1.80351 -18.3114 0
    endloop
  endfacet
  facet normal 0 0 -1
    outer loop
      vertex -3.78474 -19.0272 0
      vertex -5.63152 -18.5646 0
      vertex -3.58966 -18.0464 0
    endloop
  endfacet
  facet normal 0 0 -1
    outer loop
      vertex -5.63152 -18.5646 0
      vertex -7.04137 -16.9994 0
      vertex -5.34123 -17.6077 0
    endloop
  endfacet
  facet normal 0 0 -1
    outer loop
      vertex -7.42406 -17.9232 0
      vertex -8.67369 -16.2273 0
      vertex -7.04137 -16.9994 0
    endloop
  endfacet
  facet normal 0 0 -1
    outer loop
      vertex -9.1451 -17.1093 0
      vertex -10.7781 -16.1305 0
      vertex -8.67369 -16.2273 0
    endloop
  endfacet
  facet normal 0 0 -1
    outer loop
      vertex -10.7781 -16.1305 0
      vertex -12.3072 -14.9964 0
      vertex -10.2225 -15.299 0
    endloop
  endfacet
  facet normal 0 0 -1
    outer loop
      vertex -12.3072 -14.9964 0
      vertex -13.7179 -13.7179 0
      vertex -11.6728 -14.2234 0
    endloop
  endfacet
  facet normal 0 0 -1
    outer loop
      vertex -13.7179 -13.7179 0
      vertex -14.2234 -11.6728 0
      vertex -13.0108 -13.0108 0
    endloop
  endfacet
  facet normal 0 0 -1
    outer loop
      vertex -14.9964 -12.3072 0
      vertex -15.299 -10.2225 0
      vertex -14.2234 -11.6728 0
    endloop
  endfacet
  facet normal 0 0 -1
    outer loop
      vertex -16.1305 -10.7781 0
      vertex -16.2273 -8.67369 0
      vertex -15.299 -10.2225 0
    endloop
  endfacet
  facet normal 0 0 -1
    outer loop
      vertex -17.1093 -9.1451 0
      vertex -17.9232 -7.42406 0
      vertex -16.2273 -8.67369 0
    endloop
  endfacet
  facet normal 0 0 -1
    outer loop
      vertex -17.9232 -7.42406 0
      vertex -18.5646 -5.63152 0
      vertex -16.9994 -7.04137 0
    endloop
  endfacet
  facet normal 0 0 -1
    outer loop
      vertex -18.5646 -5.63152 0
      vertex -18.0464 -3.58966 0
      vertex -17.6077 -5.34123 0
    endloop
  endfacet
  facet normal 0 0 -1
    outer loop
      vertex -19.0272 -3.78474 0
      vertex -18.3114 -1.80351 0
      vertex -18.0464 -3.58966 0
    endloop
  endfacet
  facet normal 0 0 -1
    outer loop
      vertex -18.3114 -1.80351 0
      vertex -19.0272 -3.78474 0
      vertex -19.3066 -1.90152 0
    endloop
  endfacet
  facet normal -0 0 -1
    outer loop
      vertex -18.4 0 0
      vertex -19.3066 -1.90152 0
      vertex -19.4 0 0
    endloop
  endfacet
  facet normal -0 0 -1
    outer loop
      vertex -18.3114 1.80351 0
      vertex -18.4 0 0
      vertex -19.3066 1.90152 0
    endloop
  endfacet
  facet normal -0 0 -1
    outer loop
      vertex -18.0464 3.58966 0
      vertex -18.3114 1.80351 0
      vertex -19.0272 3.78474 0
    endloop
  endfacet
  facet normal -0 0 -1
    outer loop
      vertex -17.6077 5.34123 0
      vertex -18.0464 3.58966 0
      vertex -18.5646 5.63152 0
    endloop
  endfacet
  facet normal -0 0 -1
    outer loop
      vertex -16.9994 7.04137 0
      vertex -18.5646 5.63152 0
      vertex -17.9232 7.42406 0
    endloop
  endfacet
  facet normal -0 0 -1
    outer loop
      vertex -16.2273 8.67369 0
      vertex -17.9232 7.42406 0
      vertex -17.1093 9.1451 0
    endloop
  endfacet
  facet normal -0 0 -1
    outer loop
      vertex -15.299 10.2225 0
      vertex -16.2273 8.67369 0
      vertex -16.1305 10.7781 0
    endloop
  endfacet
  facet normal -0 0 -1
    outer loop
      vertex -14.2234 11.6728 0
      vertex -15.299 10.2225 0
      vertex -14.9964 12.3072 0
    endloop
  endfacet
  facet normal -0 0 -1
    outer loop
      vertex -13.0108 13.0108 0
      vertex -14.2234 11.6728 0
      vertex -13.7179 13.7179 0
    endloop
  endfacet
  facet normal -0 0 -1
    outer loop
      vertex -11.6728 14.2234 0
      vertex -13.7179 13.7179 0
      vertex -12.3072 14.9964 0
    endloop
  endfacet
  facet normal -0 0 -1
    outer loop
      vertex -10.2225 15.299 0
      vertex -12.3072 14.9964 0
      vertex -10.7781 16.1305 0
    endloop
  endfacet
  facet normal -0 0 -1
    outer loop
      vertex -8.67369 16.2273 0
      vertex -10.7781 16.1305 0
      vertex -9.1451 17.1093 0
    endloop
  endfacet
  facet normal -0 0 -1
    outer loop
      vertex -7.04137 16.9994 0
      vertex -8.67369 16.2273 0
      vertex -7.42406 17.9232 0
    endloop
  endfacet
  facet normal -0 0 -1
    outer loop
      vertex -5.34123 17.6077 0
      vertex -7.04137 16.9994 0
      vertex -5.63152 18.5646 0
    endloop
  endfacet
  facet normal 0 0 -1
    outer loop
      vertex -3.58966 18.0464 0
      vertex -5.63152 18.5646 0
      vertex -3.78474 19.0272 0
    endloop
  endfacet
  facet normal 0 0 -1
    outer loop
      vertex -1.90152 19.3066 0
      vertex 0 18.4 0
      vertex -1.80351 18.3114 0
    endloop
  endfacet
  facet normal 0 0 -1
    outer loop
      vertex 0 19.4 0
      vertex 1.90152 19.3066 0
      vertex 0 18.4 0
    endloop
  endfacet
  facet normal 0 -0 -1
    outer loop
      vertex 1.90152 19.3066 0
      vertex 3.78474 19.0272 0
      vertex 1.80351 18.3114 0
    endloop
  endfacet
  facet normal 0 -0 -1
    outer loop
      vertex 3.78474 19.0272 0
      vertex 5.63152 18.5646 0
      vertex 3.58966 18.0464 0
    endloop
  endfacet
  facet normal 0 -0 -1
    outer loop
      vertex 5.63152 18.5646 0
      vertex 7.04137 16.9994 0
      vertex 5.34123 17.6077 0
    endloop
  endfacet
  facet normal 0 -0 -1
    outer loop
      vertex 7.42406 17.9232 0
      vertex 8.67369 16.2273 0
      vertex 7.04137 16.9994 0
    endloop
  endfacet
  facet normal 0 -0 -1
    outer loop
      vertex 9.1451 17.1093 0
      vertex 10.7781 16.1305 0
      vertex 8.67369 16.2273 0
    endloop
  endfacet
  facet normal 0 -0 -1
    outer loop
      vertex 10.7781 16.1305 0
      vertex 12.3072 14.9964 0
      vertex 10.2225 15.299 0
    endloop
  endfacet
  facet normal 0 -0 -1
    outer loop
      vertex 12.3072 14.9964 0
      vertex 13.7179 13.7179 0
      vertex 11.6728 14.2234 0
    endloop
  endfacet
  facet normal -0 0 -1
    outer loop
      vertex 14.9964 12.3072 0
      vertex 14.2234 11.6728 0
      vertex 13.7179 13.7179 0
    endloop
  endfacet
  facet normal 0 -0 -1
    outer loop
      vertex 14.9964 12.3072 0
      vertex 15.299 10.2225 0
      vertex 14.2234 11.6728 0
    endloop
  endfacet
  facet normal 0 0 -1
    outer loop
      vertex 14.9964 12.3072 0
      vertex 16.1305 10.7781 0
      vertex 15.299 10.2225 0
    endloop
  endfacet
  facet normal 0 0 -1
    outer loop
      vertex 15.299 10.2225 0
      vertex 16.1305 10.7781 0
      vertex 16.1794 10.6965 0
    endloop
  endfacet
  facet normal 0 0 -1
    outer loop
      vertex 15.3454 10.1452 0
      vertex 16.1794 10.6965 0
      vertex 24.5333 0 0
    endloop
  endfacet
  facet normal 0 0 -1
    outer loop
      vertex 16.1794 -10.6965 0
      vertex 24.5333 0 0
      vertex 25.8667 0 0
    endloop
  endfacet
  facet normal 0 0 -1
    outer loop
      vertex 24.5333 0 0
      vertex 16.1794 10.6965 0
      vertex 25.8667 0 0
    endloop
  endfacet
  facet normal 0 0 -1
    outer loop
      vertex 15.3454 -10.1452 0
      vertex 24.5333 0 0
      vertex 16.1794 -10.6965 0
    endloop
  endfacet
  facet normal 0 0 -1
    outer loop
      vertex 14.2234 -11.6728 0
      vertex 15.299 -10.2225 0
      vertex 14.9964 -12.3072 0
    endloop
  endfacet
  facet normal 0 0 -1
    outer loop
      vertex 13.0108 -13.0108 0
      vertex 14.2234 -11.6728 0
      vertex 13.7179 -13.7179 0
    endloop
  endfacet
  facet normal 0 0 -1
    outer loop
      vertex 11.6728 -14.2234 0
      vertex 13.7179 -13.7179 0
      vertex 12.3072 -14.9964 0
    endloop
  endfacet
  facet normal 0 0 -1
    outer loop
      vertex 10.2225 -15.299 0
      vertex 12.3072 -14.9964 0
      vertex 10.7781 -16.1305 0
    endloop
  endfacet
  facet normal 0 0 -1
    outer loop
      vertex 10.7781 -16.1305 0
      vertex 9.1451 -17.1093 0
      vertex 8.67369 -16.2273 0
    endloop
  endfacet
  facet normal 0 0 -1
    outer loop
      vertex 8.67369 -16.2273 0
      vertex 7.42406 -17.9232 0
      vertex 7.04137 -16.9994 0
    endloop
  endfacet
  facet normal 0 0 -1
    outer loop
      vertex 7.04137 -16.9994 0
      vertex 5.63152 -18.5646 0
      vertex 5.34123 -17.6077 0
    endloop
  endfacet
  facet normal 0 -0 -1
    outer loop
      vertex 5.34123 -17.6077 0
      vertex 5.63152 -18.5646 0
      vertex 3.58966 -18.0464 0
    endloop
  endfacet
  facet normal 0 0 -1
    outer loop
      vertex 3.58966 -18.0464 0
      vertex 5.63152 -18.5646 0
      vertex 3.78474 -19.0272 0
    endloop
  endfacet
  facet normal 0 0 -1
    outer loop
      vertex 0 -18.4 0
      vertex 1.80351 -18.3114 0
      vertex 1.90152 -19.3066 0
    endloop
  endfacet
  facet normal 0 0 -1
    outer loop
      vertex 1.80351 -18.3114 0
      vertex 3.78474 -19.0272 0
      vertex 1.90152 -19.3066 0
    endloop
  endfacet
  facet normal 0 0 1
    outer loop
      vertex 5.63152 -18.5646 50
      vertex 7.42406 -17.9232 50
      vertex 7.04137 -16.9994 50
    endloop
  endfacet
  facet normal 0 0 1
    outer loop
      vertex 14.9964 -12.3072 50
      vertex 16.1305 -10.7781 50
      vertex 15.299 -10.2225 50
    endloop
  endfacet
  facet normal 0 0 1
    outer loop
      vertex 10.7781 -16.1305 50
      vertex 10.2225 -15.299 50
      vertex 8.67369 -16.2273 50
    endloop
  endfacet
  facet normal 0 0 1
    outer loop
      vertex 13.7179 -13.7179 50
      vertex 13.0108 -13.0108 50
      vertex 11.6728 -14.2234 50
    endloop
  endfacet
  facet normal 0 0 1
    outer loop
      vertex 14.9964 -12.3072 50
      vertex 14.2234 -11.6728 50
      vertex 13.7179 -13.7179 50
    endloop
  endfacet
  facet normal 0 -0 1
    outer loop
      vertex 16.1305 -10.7781 50
      vertex 16.1794 -10.6965 50
      vertex 15.299 -10.2225 50
    endloop
  endfacet
  facet normal 0 0 1
    outer loop
      vertex 12.3072 -14.9964 50
      vertex 11.6728 -14.2234 50
      vertex 10.2225 -15.299 50
    endloop
  endfacet
  facet normal 0 0 1
    outer loop
      vertex 8.67369 -16.2273 50
      vertex 7.42406 -17.9232 50
      vertex 9.1451 -17.1093 50
    endloop
  endfacet
  facet normal -0 0 1
    outer loop
      vertex 15.299 -10.2225 50
      vertex 16.1794 -10.6965 50
      vertex 15.3454 -10.1452 50
    endloop
  endfacet
  facet normal 0 0 1
    outer loop
      vertex 3.78474 -19.0272 50
      vertex 3.58966 -18.0464 50
      vertex 1.80351 -18.3114 50
    endloop
  endfacet
  facet normal 0 -0 1
    outer loop
      vertex 15.3454 10.1452 50
      vertex 16.1794 10.6965 50
      vertex 15.299 10.2225 50
    endloop
  endfacet
  facet normal 0 0 1
    outer loop
      vertex -3.78474 19.0272 50
      vertex -3.58966 18.0464 50
      vertex -1.80351 18.3114 50
    endloop
  endfacet
  facet normal -0 0 1
    outer loop
      vertex 13.0108 13.0108 50
      vertex 14.2234 11.6728 50
      vertex 13.7179 13.7179 50
    endloop
  endfacet
  facet normal 0 0 1
    outer loop
      vertex 10.2225 15.299 50
      vertex 11.6728 14.2234 50
      vertex 12.3072 14.9964 50
    endloop
  endfacet
  facet normal 0 0 1
    outer loop
      vertex 8.67369 16.2273 50
      vertex 10.2225 15.299 50
      vertex 10.7781 16.1305 50
    endloop
  endfacet
  facet normal 0 0 1
    outer loop
      vertex 7.42406 17.9232 50
      vertex 8.67369 16.2273 50
      vertex 9.1451 17.1093 50
    endloop
  endfacet
  facet normal 0 0 1
    outer loop
      vertex 5.63152 18.5646 50
      vertex 7.04137 16.9994 50
      vertex 7.42406 17.9232 50
    endloop
  endfacet
  facet normal -0 0 1
    outer loop
      vertex 3.58966 18.0464 50
      vertex 5.34123 17.6077 50
      vertex 5.63152 18.5646 50
    endloop
  endfacet
  facet normal -0 0 1
    outer loop
      vertex 1.80351 18.3114 50
      vertex 3.58966 18.0464 50
      vertex 3.78474 19.0272 50
    endloop
  endfacet
  facet normal -0 0 1
    outer loop
      vertex 0 18.4 50
      vertex 1.80351 18.3114 50
      vertex 1.90152 19.3066 50
    endloop
  endfacet
  facet normal -0 0 1
    outer loop
      vertex -1.90152 19.3066 50
      vertex 0 18.4 50
      vertex 0 19.4 50
    endloop
  endfacet
  facet normal -0 0 1
    outer loop
      vertex -3.78474 19.0272 50
      vertex -1.80351 18.3114 50
      vertex -1.90152 19.3066 50
    endloop
  endfacet
  facet normal 0 0 1
    outer loop
      vertex -5.63152 18.5646 50
      vertex -5.34123 17.6077 50
      vertex -3.58966 18.0464 50
    endloop
  endfacet
  facet normal -0 0 1
    outer loop
      vertex -7.42406 17.9232 50
      vertex -7.04137 16.9994 50
      vertex -5.63152 18.5646 50
    endloop
  endfacet
  facet normal -0 0 1
    outer loop
      vertex -9.1451 17.1093 50
      vertex -8.67369 16.2273 50
      vertex -7.42406 17.9232 50
    endloop
  endfacet
  facet normal -0 0 1
    outer loop
      vertex -10.7781 16.1305 50
      vertex -10.2225 15.299 50
      vertex -8.67369 16.2273 50
    endloop
  endfacet
  facet normal -0 0 1
    outer loop
      vertex -12.3072 14.9964 50
      vertex -11.6728 14.2234 50
      vertex -10.2225 15.299 50
    endloop
  endfacet
  facet normal -0 0 1
    outer loop
      vertex -13.7179 13.7179 50
      vertex -13.0108 13.0108 50
      vertex -11.6728 14.2234 50
    endloop
  endfacet
  facet normal -0 0 1
    outer loop
      vertex -14.9964 12.3072 50
      vertex -14.2234 11.6728 50
      vertex -13.7179 13.7179 50
    endloop
  endfacet
  facet normal -0 0 1
    outer loop
      vertex -16.1305 10.7781 50
      vertex -15.299 10.2225 50
      vertex -14.9964 12.3072 50
    endloop
  endfacet
  facet normal -0 0 1
    outer loop
      vertex -17.1093 9.1451 50
      vertex -16.2273 8.67369 50
      vertex -16.1305 10.7781 50
    endloop
  endfacet
  facet normal -0 0 1
    outer loop
      vertex -17.9232 7.42406 50
      vertex -16.9994 7.04137 50
      vertex -16.2273 8.67369 50
    endloop
  endfacet
  facet normal -0 0 1
    outer loop
      vertex -18.5646 5.63152 50
      vertex -17.6077 5.34123 50
      vertex -16.9994 7.04137 50
    endloop
  endfacet
  facet normal -0 0 1
    outer loop
      vertex -19.0272 3.78474 50
      vertex -18.0464 3.58966 50
      vertex -18.5646 5.63152 50
    endloop
  endfacet
  facet normal -0 0 1
    outer loop
      vertex -19.3066 1.90152 50
      vertex -18.3114 1.80351 50
      vertex -19.0272 3.78474 50
    endloop
  endfacet
  facet normal 0 0 1
    outer loop
      vertex -19.4 0 50
      vertex -18.4 0 50
      vertex -19.3066 1.90152 50
    endloop
  endfacet
  facet normal 0 0 1
    outer loop
      vertex -19.3066 -1.90152 50
      vertex -18.3114 -1.80351 50
      vertex -18.4 0 50
    endloop
  endfacet
  facet normal 0 0 1
    outer loop
      vertex 11.6728 14.2234 50
      vertex 13.0108 13.0108 50
      vertex 13.7179 13.7179 50
    endloop
  endfacet
  facet normal 0 -0 1
    outer loop
      vertex -18.5646 -5.63152 50
      vertex -18.0464 -3.58966 50
      vertex -19.0272 -3.78474 50
    endloop
  endfacet
  facet normal 0 0 1
    outer loop
      vertex -16.9994 -7.04137 50
      vertex -17.6077 -5.34123 50
      vertex -18.5646 -5.63152 50
    endloop
  endfacet
  facet normal 0 0 1
    outer loop
      vertex -16.2273 -8.67369 50
      vertex -16.9994 -7.04137 50
      vertex -17.9232 -7.42406 50
    endloop
  endfacet
  facet normal 0 0 1
    outer loop
      vertex -16.1305 -10.7781 50
      vertex -16.2273 -8.67369 50
      vertex -17.1093 -9.1451 50
    endloop
  endfacet
  facet normal 0 0 1
    outer loop
      vertex -14.9964 -12.3072 50
      vertex -15.299 -10.2225 50
      vertex -16.1305 -10.7781 50
    endloop
  endfacet
  facet normal 0 0 1
    outer loop
      vertex -13.7179 -13.7179 50
      vertex -14.2234 -11.6728 50
      vertex -14.9964 -12.3072 50
    endloop
  endfacet
  facet normal 0 0 1
    outer loop
      vertex -11.6728 -14.2234 50
      vertex -13.0108 -13.0108 50
      vertex -13.7179 -13.7179 50
    endloop
  endfacet
  facet normal 0 0 1
    outer loop
      vertex -10.2225 -15.299 50
      vertex -11.6728 -14.2234 50
      vertex -12.3072 -14.9964 50
    endloop
  endfacet
  facet normal 0 0 1
    outer loop
      vertex -8.67369 -16.2273 50
      vertex -10.2225 -15.299 50
      vertex -10.7781 -16.1305 50
    endloop
  endfacet
  facet normal 0 0 1
    outer loop
      vertex -7.42406 -17.9232 50
      vertex -8.67369 -16.2273 50
      vertex -9.1451 -17.1093 50
    endloop
  endfacet
  facet normal 0 0 1
    outer loop
      vertex -5.63152 -18.5646 50
      vertex -7.04137 -16.9994 50
      vertex -7.42406 -17.9232 50
    endloop
  endfacet
  facet normal 0 0 1
    outer loop
      vertex -3.58966 -18.0464 50
      vertex -5.34123 -17.6077 50
      vertex -5.63152 -18.5646 50
    endloop
  endfacet
  facet normal 0 0 1
    outer loop
      vertex -1.80351 -18.3114 50
      vertex -3.58966 -18.0464 50
      vertex -3.78474 -19.0272 50
    endloop
  endfacet
  facet normal 0 0 1
    outer loop
      vertex -1.80351 -18.3114 50
      vertex -3.78474 -19.0272 50
      vertex -1.90152 -19.3066 50
    endloop
  endfacet
  facet normal 0 0 1
    outer loop
      vertex 0 -18.4 50
      vertex -1.90152 -19.3066 50
      vertex 0 -19.4 50
    endloop
  endfacet
  facet normal 0 0 1
    outer loop
      vertex 0 -18.4 50
      vertex 0 -19.4 50
      vertex 1.90152 -19.3066 50
    endloop
  endfacet
  facet normal 0 0 1
    outer loop
      vertex -1.80351 -18.3114 50
      vertex -1.90152 -19.3066 50
      vertex 0 -18.4 50
    endloop
  endfacet
  facet normal 0 0 1
    outer loop
      vertex -3.58966 -18.0464 50
      vertex -5.63152 -18.5646 50
      vertex -3.78474 -19.0272 50
    endloop
  endfacet
  facet normal 0 0 1
    outer loop
      vertex -5.34123 -17.6077 50
      vertex -7.04137 -16.9994 50
      vertex -5.63152 -18.5646 50
    endloop
  endfacet
  facet normal 0 0 1
    outer loop
      vertex -7.04137 -16.9994 50
      vertex -8.67369 -16.2273 50
      vertex -7.42406 -17.9232 50
    endloop
  endfacet
  facet normal 0 0 1
    outer loop
      vertex -8.67369 -16.2273 50
      vertex -10.7781 -16.1305 50
      vertex -9.1451 -17.1093 50
    endloop
  endfacet
  facet normal 0 0 1
    outer loop
      vertex -10.2225 -15.299 50
      vertex -12.3072 -14.9964 50
      vertex -10.7781 -16.1305 50
    endloop
  endfacet
  facet normal 0 0 1
    outer loop
      vertex -11.6728 -14.2234 50
      vertex -13.7179 -13.7179 50
      vertex -12.3072 -14.9964 50
    endloop
  endfacet
  facet normal 0 0 1
    outer loop
      vertex -13.0108 -13.0108 50
      vertex -14.2234 -11.6728 50
      vertex -13.7179 -13.7179 50
    endloop
  endfacet
  facet normal 0 0 1
    outer loop
      vertex -14.2234 -11.6728 50
      vertex -15.299 -10.2225 50
      vertex -14.9964 -12.3072 50
    endloop
  endfacet
  facet normal 0 0 1
    outer loop
      vertex -15.299 -10.2225 50
      vertex -16.2273 -8.67369 50
      vertex -16.1305 -10.7781 50
    endloop
  endfacet
  facet normal 0 0 1
    outer loop
      vertex -16.2273 -8.67369 50
      vertex -17.9232 -7.42406 50
      vertex -17.1093 -9.1451 50
    endloop
  endfacet
  facet normal 0 0 1
    outer loop
      vertex -16.9994 -7.04137 50
      vertex -18.5646 -5.63152 50
      vertex -17.9232 -7.42406 50
    endloop
  endfacet
  facet normal 0 0 1
    outer loop
      vertex -17.6077 -5.34123 50
      vertex -18.0464 -3.58966 50
      vertex -18.5646 -5.63152 50
    endloop
  endfacet
  facet normal 0 0 1
    outer loop
      vertex -18.0464 -3.58966 50
      vertex -18.3114 -1.80351 50
      vertex -19.0272 -3.78474 50
    endloop
  endfacet
  facet normal -0 0 1
    outer loop
      vertex -19.3066 -1.90152 50
      vertex -19.0272 -3.78474 50
      vertex -18.3114 -1.80351 50
    endloop
  endfacet
  facet normal -0 0 1
    outer loop
      vertex -19.4 0 50
      vertex -19.3066 -1.90152 50
      vertex -18.4 0 50
    endloop
  endfacet
  facet normal 0 0 1
    outer loop
      vertex -19.3066 1.90152 50
      vertex -18.4 0 50
      vertex -18.3114 1.80351 50
    endloop
  endfacet
  facet normal 0 0 1
    outer loop
      vertex -19.0272 3.78474 50
      vertex -18.3114 1.80351 50
      vertex -18.0464 3.58966 50
    endloop
  endfacet
  facet normal 0 0 1
    outer loop
      vertex -18.5646 5.63152 50
      vertex -18.0464 3.58966 50
      vertex -17.6077 5.34123 50
    endloop
  endfacet
  facet normal 0 0 1
    outer loop
      vertex -17.9232 7.42406 50
      vertex -18.5646 5.63152 50
      vertex -16.9994 7.04137 50
    endloop
  endfacet
  facet normal 0 0 1
    outer loop
      vertex -17.1093 9.1451 50
      vertex -17.9232 7.42406 50
      vertex -16.2273 8.67369 50
    endloop
  endfacet
  facet normal 0 0 1
    outer loop
      vertex -16.1305 10.7781 50
      vertex -16.2273 8.67369 50
      vertex -15.299 10.2225 50
    endloop
  endfacet
  facet normal 0 0 1
    outer loop
      vertex -14.9964 12.3072 50
      vertex -15.299 10.2225 50
      vertex -14.2234 11.6728 50
    endloop
  endfacet
  facet normal 0 0 1
    outer loop
      vertex -13.7179 13.7179 50
      vertex -14.2234 11.6728 50
      vertex -13.0108 13.0108 50
    endloop
  endfacet
  facet normal 0 0 1
    outer loop
      vertex -12.3072 14.9964 50
      vertex -13.7179 13.7179 50
      vertex -11.6728 14.2234 50
    endloop
  endfacet
  facet normal 0 0 1
    outer loop
      vertex -10.7781 16.1305 50
      vertex -12.3072 14.9964 50
      vertex -10.2225 15.299 50
    endloop
  endfacet
  facet normal 0 0 1
    outer loop
      vertex -9.1451 17.1093 50
      vertex -10.7781 16.1305 50
      vertex -8.67369 16.2273 50
    endloop
  endfacet
  facet normal 0 0 1
    outer loop
      vertex -7.42406 17.9232 50
      vertex -8.67369 16.2273 50
      vertex -7.04137 16.9994 50
    endloop
  endfacet
  facet normal 0 0 1
    outer loop
      vertex -5.63152 18.5646 50
      vertex -7.04137 16.9994 50
      vertex -5.34123 17.6077 50
    endloop
  endfacet
  facet normal 0 0 1
    outer loop
      vertex -3.78474 19.0272 50
      vertex -5.63152 18.5646 50
      vertex -3.58966 18.0464 50
    endloop
  endfacet
  facet normal 0 -0 1
    outer loop
      vertex -1.80351 18.3114 50
      vertex 0 18.4 50
      vertex -1.90152 19.3066 50
    endloop
  endfacet
  facet normal 0 0 1
    outer loop
      vertex 0 18.4 50
      vertex 1.90152 19.3066 50
      vertex 0 19.4 50
    endloop
  endfacet
  facet normal 0 0 1
    outer loop
      vertex 1.80351 18.3114 50
      vertex 3.78474 19.0272 50
      vertex 1.90152 19.3066 50
    endloop
  endfacet
  facet normal 0 0 1
    outer loop
      vertex 3.58966 18.0464 50
      vertex 5.63152 18.5646 50
      vertex 3.78474 19.0272 50
    endloop
  endfacet
  facet normal -0 0 1
    outer loop
      vertex 5.34123 17.6077 50
      vertex 7.04137 16.9994 50
      vertex 5.63152 18.5646 50
    endloop
  endfacet
  facet normal -0 0 1
    outer loop
      vertex 7.04137 16.9994 50
      vertex 8.67369 16.2273 50
      vertex 7.42406 17.9232 50
    endloop
  endfacet
  facet normal -0 0 1
    outer loop
      vertex 8.67369 16.2273 50
      vertex 10.7781 16.1305 50
      vertex 9.1451 17.1093 50
    endloop
  endfacet
  facet normal -0 0 1
    outer loop
      vertex 10.2225 15.299 50
      vertex 12.3072 14.9964 50
      vertex 10.7781 16.1305 50
    endloop
  endfacet
  facet normal -0 0 1
    outer loop
      vertex 11.6728 14.2234 50
      vertex 13.7179 13.7179 50
      vertex 12.3072 14.9964 50
    endloop
  endfacet
  facet normal 0 0 1
    outer loop
      vertex 13.7179 13.7179 50
      vertex 14.2234 11.6728 50
      vertex 14.9964 12.3072 50
    endloop
  endfacet
  facet normal -0 0 1
    outer loop
      vertex 14.2234 11.6728 50
      vertex 15.299 10.2225 50
      vertex 14.9964 12.3072 50
    endloop
  endfacet
  facet normal 0 -0 1
    outer loop
      vertex 15.299 10.2225 50
      vertex 16.1305 10.7781 50
      vertex 14.9964 12.3072 50
    endloop
  endfacet
  facet normal 0 0 1
    outer loop
      vertex 16.1794 10.6965 50
      vertex 16.1305 10.7781 50
      vertex 15.299 10.2225 50
    endloop
  endfacet
  facet normal 0 0 1
    outer loop
      vertex 24.5333 0 50
      vertex 16.1794 10.6965 50
      vertex 15.3454 10.1452 50
    endloop
  endfacet
  facet normal 0 0 1
    outer loop
      vertex 25.8667 0 50
      vertex 24.5333 0 50
      vertex 16.1794 -10.6965 50
    endloop
  endfacet
  facet normal 0 0 1
    outer loop
      vertex 25.8667 0 50
      vertex 16.1794 10.6965 50
      vertex 24.5333 0 50
    endloop
  endfacet
  facet normal 0 -0 1
    outer loop
      vertex 16.1794 -10.6965 50
      vertex 24.5333 0 50
      vertex 15.3454 -10.1452 50
    endloop
  endfacet
  facet normal 0 -0 1
    outer loop
      vertex 14.9964 -12.3072 50
      vertex 15.299 -10.2225 50
      vertex 14.2234 -11.6728 50
    endloop
  endfacet
  facet normal 0 -0 1
    outer loop
      vertex 13.7179 -13.7179 50
      vertex 14.2234 -11.6728 50
      vertex 13.0108 -13.0108 50
    endloop
  endfacet
  facet normal 0 -0 1
    outer loop
      vertex 12.3072 -14.9964 50
      vertex 13.7179 -13.7179 50
      vertex 11.6728 -14.2234 50
    endloop
  endfacet
  facet normal 0 -0 1
    outer loop
      vertex 10.7781 -16.1305 50
      vertex 12.3072 -14.9964 50
      vertex 10.2225 -15.299 50
    endloop
  endfacet
  facet normal -0 0 1
    outer loop
      vertex 8.67369 -16.2273 50
      vertex 9.1451 -17.1093 50
      vertex 10.7781 -16.1305 50
    endloop
  endfacet
  facet normal -0 0 1
    outer loop
      vertex 7.04137 -16.9994 50
      vertex 7.42406 -17.9232 50
      vertex 8.67369 -16.2273 50
    endloop
  endfacet
  facet normal -0 0 1
    outer loop
      vertex 5.34123 -17.6077 50
      vertex 5.63152 -18.5646 50
      vertex 7.04137 -16.9994 50
    endloop
  endfacet
  facet normal -0 0 1
    outer loop
      vertex 3.58966 -18.0464 50
      vertex 5.63152 -18.5646 50
      vertex 5.34123 -17.6077 50
    endloop
  endfacet
  facet normal 0 -0 1
    outer loop
      vertex 3.78474 -19.0272 50
      vertex 5.63152 -18.5646 50
      vertex 3.58966 -18.0464 50
    endloop
  endfacet
  facet normal 0 0 1
    outer loop
      vertex 1.90152 -19.3066 50
      vertex 1.80351 -18.3114 50
      vertex 0 -18.4 50
    endloop
  endfacet
  facet normal 0 -0 1
    outer loop
      vertex 1.90152 -19.3066 50
      vertex 3.78474 -19.0272 50
      vertex 1.80351 -18.3114 50
    endloop
  endfacet
  facet normal 0.146757 -0.989173 0
    outer loop
      vertex 3.78474 -19.0272 0
      vertex 1.90152 -19.3066 50
      vertex 1.90152 -19.3066 0
    endloop
  endfacet
  facet normal 0.146757 -0.989173 0
    outer loop
      vertex 3.78474 -19.0272 0
      vertex 3.78474 -19.0272 50
      vertex 1.90152 -19.3066 50
    endloop
  endfacet
  facet normal 0.242983 -0.970031 0
    outer loop
      vertex 5.63152 -18.5646 0
      vertex 3.78474 -19.0272 50
      vertex 3.78474 -19.0272 0
    endloop
  endfacet
  facet normal 0.242983 -0.970031 0
    outer loop
      vertex 5.63152 -18.5646 0
      vertex 5.63152 -18.5646 50
      vertex 3.78474 -19.0272 50
    endloop
  endfacet
  facet normal 0.336899 -0.941541 0
    outer loop
      vertex 7.42406 -17.9232 0
      vertex 5.63152 -18.5646 50
      vertex 5.63152 -18.5646 0
    endloop
  endfacet
  facet normal 0.336899 -0.941541 0
    outer loop
      vertex 7.42406 -17.9232 0
      vertex 7.42406 -17.9232 50
      vertex 5.63152 -18.5646 50
    endloop
  endfacet
  facet normal 0.427516 -0.904008 0
    outer loop
      vertex 9.1451 -17.1093 0
      vertex 7.42406 -17.9232 50
      vertex 7.42406 -17.9232 0
    endloop
  endfacet
  facet normal 0.427516 -0.904008 0
    outer loop
      vertex 9.1451 -17.1093 0
      vertex 9.1451 -17.1093 50
      vertex 7.42406 -17.9232 50
    endloop
  endfacet
  facet normal 0.514109 -0.857725 0
    outer loop
      vertex 10.7781 -16.1305 0
      vertex 9.1451 -17.1093 50
      vertex 9.1451 -17.1093 0
    endloop
  endfacet
  facet normal 0.514109 -0.857725 0
    outer loop
      vertex 10.7781 -16.1305 0
      vertex 10.7781 -16.1305 50
      vertex 9.1451 -17.1093 50
    endloop
  endfacet
  facet normal 0.595714 -0.803197 0
    outer loop
      vertex 12.3072 -14.9964 0
      vertex 10.7781 -16.1305 50
      vertex 10.7781 -16.1305 0
    endloop
  endfacet
  facet normal 0.595714 -0.803197 0
    outer loop
      vertex 12.3072 -14.9964 0
      vertex 12.3072 -14.9964 50
      vertex 10.7781 -16.1305 50
    endloop
  endfacet
  facet normal 0.671535 -0.740973 0
    outer loop
      vertex 13.7179 -13.7179 0
      vertex 12.3072 -14.9964 50
      vertex 12.3072 -14.9964 0
    endloop
  endfacet
  facet normal 0.671535 -0.740973 0
    outer loop
      vertex 13.7179 -13.7179 0
      vertex 13.7179 -13.7179 50
      vertex 12.3072 -14.9964 50
    endloop
  endfacet
  facet normal 0.740973 -0.671535 0
    outer loop
      vertex 14.9964 -12.3072 0
      vertex 13.7179 -13.7179 50
      vertex 13.7179 -13.7179 0
    endloop
  endfacet
  facet normal 0.740973 -0.671535 0
    outer loop
      vertex 14.9964 -12.3072 0
      vertex 14.9964 -12.3072 50
      vertex 13.7179 -13.7179 50
    endloop
  endfacet
  facet normal 0.803197 -0.595714 0
    outer loop
      vertex 16.1305 -10.7781 0
      vertex 14.9964 -12.3072 50
      vertex 14.9964 -12.3072 0
    endloop
  endfacet
  facet normal 0.803197 -0.595714 0
    outer loop
      vertex 16.1305 -10.7781 0
      vertex 16.1305 -10.7781 50
      vertex 14.9964 -12.3072 50
    endloop
  endfacet
  facet normal 0.857771 -0.514032 0
    outer loop
      vertex 16.1794 -10.6965 0
      vertex 16.1305 -10.7781 50
      vertex 16.1305 -10.7781 0
    endloop
  endfacet
  facet normal 0.857771 -0.514032 0
    outer loop
      vertex 16.1794 -10.6965 0
      vertex 16.1794 -10.6965 50
      vertex 16.1305 -10.7781 50
    endloop
  endfacet
  facet normal 0.741208 -0.671276 0
    outer loop
      vertex 25.8667 0 0
      vertex 16.1794 -10.6965 50
      vertex 16.1794 -10.6965 0
    endloop
  endfacet
  facet normal 0.741208 -0.671276 0
    outer loop
      vertex 25.8667 0 0
      vertex 25.8667 0 50
      vertex 16.1794 -10.6965 50
    endloop
  endfacet
  facet normal 0.741208 0.671276 0
    outer loop
      vertex 16.1794 10.6965 0
      vertex 25.8667 0 50
      vertex 25.8667 0 0
    endloop
  endfacet
  facet normal 0.741208 0.671276 -0
    outer loop
      vertex 16.1794 10.6965 0
      vertex 16.1794 10.6965 50
      vertex 25.8667 0 50
    endloop
  endfacet
  facet normal 0.857771 0.514032 0
    outer loop
      vertex 16.1305 10.7781 0
      vertex 16.1794 10.6965 50
      vertex 16.1794 10.6965 0
    endloop
  endfacet
  facet normal 0.857771 0.514032 -0
    outer loop
      vertex 16.1305 10.7781 0
      vertex 16.1305 10.7781 50
      vertex 16.1794 10.6965 50
    endloop
  endfacet
  facet normal 0.803197 0.595714 0
    outer loop
      vertex 14.9964 12.3072 0
      vertex 16.1305 10.7781 50
      vertex 16.1305 10.7781 0
    endloop
  endfacet
  facet normal 0.803197 0.595714 -0
    outer loop
      vertex 14.9964 12.3072 0
      vertex 14.9964 12.3072 50
      vertex 16.1305 10.7781 50
    endloop
  endfacet
  facet normal 0.740973 0.671535 0
    outer loop
      vertex 13.7179 13.7179 0
      vertex 14.9964 12.3072 50
      vertex 14.9964 12.3072 0
    endloop
  endfacet
  facet normal 0.740973 0.671535 -0
    outer loop
      vertex 13.7179 13.7179 0
      vertex 13.7179 13.7179 50
      vertex 14.9964 12.3072 50
    endloop
  endfacet
  facet normal 0.671535 0.740973 0
    outer loop
      vertex 12.3072 14.9964 0
      vertex 13.7179 13.7179 50
      vertex 13.7179 13.7179 0
    endloop
  endfacet
  facet normal 0.671535 0.740973 -0
    outer loop
      vertex 12.3072 14.9964 0
      vertex 12.3072 14.9964 50
      vertex 13.7179 13.7179 50
    endloop
  endfacet
  facet normal 0.595714 0.803197 0
    outer loop
      vertex 10.7781 16.1305 0
      vertex 12.3072 14.9964 50
      vertex 12.3072 14.9964 0
    endloop
  endfacet
  facet normal 0.595714 0.803197 -0
    outer loop
      vertex 10.7781 16.1305 0
      vertex 10.7781 16.1305 50
      vertex 12.3072 14.9964 50
    endloop
  endfacet
  facet normal 0.514109 0.857725 0
    outer loop
      vertex 9.1451 17.1093 0
      vertex 10.7781 16.1305 50
      vertex 10.7781 16.1305 0
    endloop
  endfacet
  facet normal 0.514109 0.857725 -0
    outer loop
      vertex 9.1451 17.1093 0
      vertex 9.1451 17.1093 50
      vertex 10.7781 16.1305 50
    endloop
  endfacet
  facet normal 0.427516 0.904008 0
    outer loop
      vertex 7.42406 17.9232 0
      vertex 9.1451 17.1093 50
      vertex 9.1451 17.1093 0
    endloop
  endfacet
  facet normal 0.427516 0.904008 -0
    outer loop
      vertex 7.42406 17.9232 0
      vertex 7.42406 17.9232 50
      vertex 9.1451 17.1093 50
    endloop
  endfacet
  facet normal 0.336899 0.941541 0
    outer loop
      vertex 5.63152 18.5646 0
      vertex 7.42406 17.9232 50
      vertex 7.42406 17.9232 0
    endloop
  endfacet
  facet normal 0.336899 0.941541 -0
    outer loop
      vertex 5.63152 18.5646 0
      vertex 5.63152 18.5646 50
      vertex 7.42406 17.9232 50
    endloop
  endfacet
  facet normal 0.242983 0.970031 0
    outer loop
      vertex 3.78474 19.0272 0
      vertex 5.63152 18.5646 50
      vertex 5.63152 18.5646 0
    endloop
  endfacet
  facet normal 0.242983 0.970031 -0
    outer loop
      vertex 3.78474 19.0272 0
      vertex 3.78474 19.0272 50
      vertex 5.63152 18.5646 50
    endloop
  endfacet
  facet normal 0.146757 0.989173 0
    outer loop
      vertex 1.90152 19.3066 0
      vertex 3.78474 19.0272 50
      vertex 3.78474 19.0272 0
    endloop
  endfacet
  facet normal 0.146757 0.989173 -0
    outer loop
      vertex 1.90152 19.3066 0
      vertex 1.90152 19.3066 50
      vertex 3.78474 19.0272 50
    endloop
  endfacet
  facet normal 0.0490595 0.998796 0
    outer loop
      vertex 0 19.4 0
      vertex 1.90152 19.3066 50
      vertex 1.90152 19.3066 0
    endloop
  endfacet
  facet normal 0.0490595 0.998796 -0
    outer loop
      vertex 0 19.4 0
      vertex 0 19.4 50
      vertex 1.90152 19.3066 50
    endloop
  endfacet
  facet normal -0.0490595 0.998796 0
    outer loop
      vertex -1.90152 19.3066 0
      vertex 0 19.4 50
      vertex 0 19.4 0
    endloop
  endfacet
  facet normal -0.0490595 0.998796 0
    outer loop
      vertex -1.90152 19.3066 0
      vertex -1.90152 19.3066 50
      vertex 0 19.4 50
    endloop
  endfacet
  facet normal -0.146757 0.989173 0
    outer loop
      vertex -3.78474 19.0272 0
      vertex -1.90152 19.3066 50
      vertex -1.90152 19.3066 0
    endloop
  endfacet
  facet normal -0.146757 0.989173 0
    outer loop
      vertex -3.78474 19.0272 0
      vertex -3.78474 19.0272 50
      vertex -1.90152 19.3066 50
    endloop
  endfacet
  facet normal -0.242983 0.970031 0
    outer loop
      vertex -5.63152 18.5646 0
      vertex -3.78474 19.0272 50
      vertex -3.78474 19.0272 0
    endloop
  endfacet
  facet normal -0.242983 0.970031 0
    outer loop
      vertex -5.63152 18.5646 0
      vertex -5.63152 18.5646 50
      vertex -3.78474 19.0272 50
    endloop
  endfacet
  facet normal -0.336899 0.941541 0
    outer loop
      vertex -7.42406 17.9232 0
      vertex -5.63152 18.5646 50
      vertex -5.63152 18.5646 0
    endloop
  endfacet
  facet normal -0.336899 0.941541 0
    outer loop
      vertex -7.42406 17.9232 0
      vertex -7.42406 17.9232 50
      vertex -5.63152 18.5646 50
    endloop
  endfacet
  facet normal -0.427516 0.904008 0
    outer loop
      vertex -9.1451 17.1093 0
      vertex -7.42406 17.9232 50
      vertex -7.42406 17.9232 0
    endloop
  endfacet
  facet normal -0.427516 0.904008 0
    outer loop
      vertex -9.1451 17.1093 0
      vertex -9.1451 17.1093 50
      vertex -7.42406 17.9232 50
    endloop
  endfacet
  facet normal -0.514109 0.857725 0
    outer loop
      vertex -10.7781 16.1305 0
      vertex -9.1451 17.1093 50
      vertex -9.1451 17.1093 0
    endloop
  endfacet
  facet normal -0.514109 0.857725 0
    outer loop
      vertex -10.7781 16.1305 0
      vertex -10.7781 16.1305 50
      vertex -9.1451 17.1093 50
    endloop
  endfacet
  facet normal -0.595714 0.803197 0
    outer loop
      vertex -12.3072 14.9964 0
      vertex -10.7781 16.1305 50
      vertex -10.7781 16.1305 0
    endloop
  endfacet
  facet normal -0.595714 0.803197 0
    outer loop
      vertex -12.3072 14.9964 0
      vertex -12.3072 14.9964 50
      vertex -10.7781 16.1305 50
    endloop
  endfacet
  facet normal -0.671535 0.740973 0
    outer loop
      vertex -13.7179 13.7179 0
      vertex -12.3072 14.9964 50
      vertex -12.3072 14.9964 0
    endloop
  endfacet
  facet normal -0.671535 0.740973 0
    outer loop
      vertex -13.7179 13.7179 0
      vertex -13.7179 13.7179 50
      vertex -12.3072 14.9964 50
    endloop
  endfacet
  facet normal -0.740973 0.671535 0
    outer loop
      vertex -14.9964 12.3072 0
      vertex -13.7179 13.7179 50
      vertex -13.7179 13.7179 0
    endloop
  endfacet
  facet normal -0.740973 0.671535 0
    outer loop
      vertex -14.9964 12.3072 0
      vertex -14.9964 12.3072 50
      vertex -13.7179 13.7179 50
    endloop
  endfacet
  facet normal -0.803197 0.595714 0
    outer loop
      vertex -16.1305 10.7781 0
      vertex -14.9964 12.3072 50
      vertex -14.9964 12.3072 0
    endloop
  endfacet
  facet normal -0.803197 0.595714 0
    outer loop
      vertex -16.1305 10.7781 0
      vertex -16.1305 10.7781 50
      vertex -14.9964 12.3072 50
    endloop
  endfacet
  facet normal -0.857725 0.514109 0
    outer loop
      vertex -17.1093 9.1451 0
      vertex -16.1305 10.7781 50
      vertex -16.1305 10.7781 0
    endloop
  endfacet
  facet normal -0.857725 0.514109 0
    outer loop
      vertex -17.1093 9.1451 0
      vertex -17.1093 9.1451 50
      vertex -16.1305 10.7781 50
    endloop
  endfacet
  facet normal -0.904008 0.427516 0
    outer loop
      vertex -17.9232 7.42406 0
      vertex -17.1093 9.1451 50
      vertex -17.1093 9.1451 0
    endloop
  endfacet
  facet normal -0.904008 0.427516 0
    outer loop
      vertex -17.9232 7.42406 0
      vertex -17.9232 7.42406 50
      vertex -17.1093 9.1451 50
    endloop
  endfacet
  facet normal -0.941541 0.336899 0
    outer loop
      vertex -18.5646 5.63152 0
      vertex -17.9232 7.42406 50
      vertex -17.9232 7.42406 0
    endloop
  endfacet
  facet normal -0.941541 0.336899 0
    outer loop
      vertex -18.5646 5.63152 0
      vertex -18.5646 5.63152 50
      vertex -17.9232 7.42406 50
    endloop
  endfacet
  facet normal -0.970031 0.242983 0
    outer loop
      vertex -19.0272 3.78474 0
      vertex -18.5646 5.63152 50
      vertex -18.5646 5.63152 0
    endloop
  endfacet
  facet normal -0.970031 0.242983 0
    outer loop
      vertex -19.0272 3.78474 0
      vertex -19.0272 3.78474 50
      vertex -18.5646 5.63152 50
    endloop
  endfacet
  facet normal -0.989173 0.146757 0
    outer loop
      vertex -19.3066 1.90152 0
      vertex -19.0272 3.78474 50
      vertex -19.0272 3.78474 0
    endloop
  endfacet
  facet normal -0.989173 0.146757 0
    outer loop
      vertex -19.3066 1.90152 0
      vertex -19.3066 1.90152 50
      vertex -19.0272 3.78474 50
    endloop
  endfacet
  facet normal -0.998796 0.0490595 0
    outer loop
      vertex -19.4 0 0
      vertex -19.3066 1.90152 50
      vertex -19.3066 1.90152 0
    endloop
  endfacet
  facet normal -0.998796 0.0490595 0
    outer loop
      vertex -19.4 0 0
      vertex -19.4 0 50
      vertex -19.3066 1.90152 50
    endloop
  endfacet
  facet normal -0.998796 -0.0490595 0
    outer loop
      vertex -19.3066 -1.90152 0
      vertex -19.4 0 50
      vertex -19.4 0 0
    endloop
  endfacet
  facet normal -0.998796 -0.0490595 0
    outer loop
      vertex -19.3066 -1.90152 0
      vertex -19.3066 -1.90152 50
      vertex -19.4 0 50
    endloop
  endfacet
  facet normal -0.989173 -0.146757 0
    outer loop
      vertex -19.0272 -3.78474 0
      vertex -19.3066 -1.90152 50
      vertex -19.3066 -1.90152 0
    endloop
  endfacet
  facet normal -0.989173 -0.146757 0
    outer loop
      vertex -19.0272 -3.78474 0
      vertex -19.0272 -3.78474 50
      vertex -19.3066 -1.90152 50
    endloop
  endfacet
  facet normal -0.970031 -0.242983 0
    outer loop
      vertex -18.5646 -5.63152 0
      vertex -19.0272 -3.78474 50
      vertex -19.0272 -3.78474 0
    endloop
  endfacet
  facet normal -0.970031 -0.242983 0
    outer loop
      vertex -18.5646 -5.63152 0
      vertex -18.5646 -5.63152 50
      vertex -19.0272 -3.78474 50
    endloop
  endfacet
  facet normal -0.941541 -0.336899 0
    outer loop
      vertex -17.9232 -7.42406 0
      vertex -18.5646 -5.63152 50
      vertex -18.5646 -5.63152 0
    endloop
  endfacet
  facet normal -0.941541 -0.336899 0
    outer loop
      vertex -17.9232 -7.42406 0
      vertex -17.9232 -7.42406 50
      vertex -18.5646 -5.63152 50
    endloop
  endfacet
  facet normal -0.904008 -0.427516 0
    outer loop
      vertex -17.1093 -9.1451 0
      vertex -17.9232 -7.42406 50
      vertex -17.9232 -7.42406 0
    endloop
  endfacet
  facet normal -0.904008 -0.427516 0
    outer loop
      vertex -17.1093 -9.1451 0
      vertex -17.1093 -9.1451 50
      vertex -17.9232 -7.42406 50
    endloop
  endfacet
  facet normal -0.857725 -0.514109 0
    outer loop
      vertex -16.1305 -10.7781 0
      vertex -17.1093 -9.1451 50
      vertex -17.1093 -9.1451 0
    endloop
  endfacet
  facet normal -0.857725 -0.514109 0
    outer loop
      vertex -16.1305 -10.7781 0
      vertex -16.1305 -10.7781 50
      vertex -17.1093 -9.1451 50
    endloop
  endfacet
  facet normal -0.803197 -0.595714 0
    outer loop
      vertex -14.9964 -12.3072 0
      vertex -16.1305 -10.7781 50
      vertex -16.1305 -10.7781 0
    endloop
  endfacet
  facet normal -0.803197 -0.595714 0
    outer loop
      vertex -14.9964 -12.3072 0
      vertex -14.9964 -12.3072 50
      vertex -16.1305 -10.7781 50
    endloop
  endfacet
  facet normal -0.740973 -0.671535 0
    outer loop
      vertex -13.7179 -13.7179 0
      vertex -14.9964 -12.3072 50
      vertex -14.9964 -12.3072 0
    endloop
  endfacet
  facet normal -0.740973 -0.671535 0
    outer loop
      vertex -13.7179 -13.7179 0
      vertex -13.7179 -13.7179 50
      vertex -14.9964 -12.3072 50
    endloop
  endfacet
  facet normal -0.671535 -0.740973 0
    outer loop
      vertex -12.3072 -14.9964 0
      vertex -13.7179 -13.7179 50
      vertex -13.7179 -13.7179 0
    endloop
  endfacet
  facet normal -0.671535 -0.740973 0
    outer loop
      vertex -12.3072 -14.9964 0
      vertex -12.3072 -14.9964 50
      vertex -13.7179 -13.7179 50
    endloop
  endfacet
  facet normal -0.595714 -0.803197 0
    outer loop
      vertex -10.7781 -16.1305 0
      vertex -12.3072 -14.9964 50
      vertex -12.3072 -14.9964 0
    endloop
  endfacet
  facet normal -0.595714 -0.803197 0
    outer loop
      vertex -10.7781 -16.1305 0
      vertex -10.7781 -16.1305 50
      vertex -12.3072 -14.9964 50
    endloop
  endfacet
  facet normal -0.514109 -0.857725 0
    outer loop
      vertex -9.1451 -17.1093 0
      vertex -10.7781 -16.1305 50
      vertex -10.7781 -16.1305 0
    endloop
  endfacet
  facet normal -0.514109 -0.857725 0
    outer loop
      vertex -9.1451 -17.1093 0
      vertex -9.1451 -17.1093 50
      vertex -10.7781 -16.1305 50
    endloop
  endfacet
  facet normal -0.427516 -0.904008 0
    outer loop
      vertex -7.42406 -17.9232 0
      vertex -9.1451 -17.1093 50
      vertex -9.1451 -17.1093 0
    endloop
  endfacet
  facet normal -0.427516 -0.904008 0
    outer loop
      vertex -7.42406 -17.9232 0
      vertex -7.42406 -17.9232 50
      vertex -9.1451 -17.1093 50
    endloop
  endfacet
  facet normal -0.336899 -0.941541 0
    outer loop
      vertex -5.63152 -18.5646 0
      vertex -7.42406 -17.9232 50
      vertex -7.42406 -17.9232 0
    endloop
  endfacet
  facet normal -0.336899 -0.941541 0
    outer loop
      vertex -5.63152 -18.5646 0
      vertex -5.63152 -18.5646 50
      vertex -7.42406 -17.9232 50
    endloop
  endfacet
  facet normal -0.242983 -0.970031 0
    outer loop
      vertex -3.78474 -19.0272 0
      vertex -5.63152 -18.5646 50
      vertex -5.63152 -18.5646 0
    endloop
  endfacet
  facet normal -0.242983 -0.970031 0
    outer loop
      vertex -3.78474 -19.0272 0
      vertex -3.78474 -19.0272 50
      vertex -5.63152 -18.5646 50
    endloop
  endfacet
  facet normal -0.146757 -0.989173 0
    outer loop
      vertex -1.90152 -19.3066 0
      vertex -3.78474 -19.0272 50
      vertex -3.78474 -19.0272 0
    endloop
  endfacet
  facet normal -0.146757 -0.989173 0
    outer loop
      vertex -1.90152 -19.3066 0
      vertex -1.90152 -19.3066 50
      vertex -3.78474 -19.0272 50
    endloop
  endfacet
  facet normal -0.0490595 -0.998796 0
    outer loop
      vertex 0 -19.4 0
      vertex -1.90152 -19.3066 50
      vertex -1.90152 -19.3066 0
    endloop
  endfacet
  facet normal -0.0490595 -0.998796 0
    outer loop
      vertex 0 -19.4 0
      vertex 0 -19.4 50
      vertex -1.90152 -19.3066 50
    endloop
  endfacet
  facet normal 0.0490595 -0.998796 0
    outer loop
      vertex 1.90152 -19.3066 0
      vertex 0 -19.4 50
      vertex 0 -19.4 0
    endloop
  endfacet
  facet normal 0.0490595 -0.998796 0
    outer loop
      vertex 1.90152 -19.3066 0
      vertex 1.90152 -19.3066 50
      vertex 0 -19.4 50
    endloop
  endfacet
  facet normal 0.146757 0.989173 -0
    outer loop
      vertex -3.58966 -18.0464 0
      vertex -3.58966 -18.0464 50
      vertex -1.80351 -18.3114 0
    endloop
  endfacet
  facet normal 0.146757 0.989173 0
    outer loop
      vertex -1.80351 -18.3114 50
      vertex -1.80351 -18.3114 0
      vertex -3.58966 -18.0464 50
    endloop
  endfacet
  facet normal 0.242956 0.970037 -0
    outer loop
      vertex -5.34123 -17.6077 0
      vertex -5.34123 -17.6077 50
      vertex -3.58966 -18.0464 0
    endloop
  endfacet
  facet normal 0.242956 0.970037 0
    outer loop
      vertex -3.58966 -18.0464 50
      vertex -3.58966 -18.0464 0
      vertex -5.34123 -17.6077 50
    endloop
  endfacet
  facet normal 0.33688 0.941548 -0
    outer loop
      vertex -7.04137 -16.9994 0
      vertex -7.04137 -16.9994 50
      vertex -5.34123 -17.6077 0
    endloop
  endfacet
  facet normal 0.33688 0.941548 0
    outer loop
      vertex -5.34123 -17.6077 50
      vertex -5.34123 -17.6077 0
      vertex -7.04137 -16.9994 50
    endloop
  endfacet
  facet normal 0.427587 0.903974 -0
    outer loop
      vertex -8.67369 -16.2273 0
      vertex -8.67369 -16.2273 50
      vertex -7.04137 -16.9994 0
    endloop
  endfacet
  facet normal 0.427587 0.903974 0
    outer loop
      vertex -7.04137 -16.9994 50
      vertex -7.04137 -16.9994 0
      vertex -8.67369 -16.2273 50
    endloop
  endfacet
  facet normal 0.514094 0.857734 -0
    outer loop
      vertex -10.2225 -15.299 0
      vertex -10.2225 -15.299 50
      vertex -8.67369 -16.2273 0
    endloop
  endfacet
  facet normal 0.514094 0.857734 0
    outer loop
      vertex -8.67369 -16.2273 50
      vertex -8.67369 -16.2273 0
      vertex -10.2225 -15.299 50
    endloop
  endfacet
  facet normal 0.595694 0.803212 -0
    outer loop
      vertex -11.6728 -14.2234 0
      vertex -11.6728 -14.2234 50
      vertex -10.2225 -15.299 0
    endloop
  endfacet
  facet normal 0.595694 0.803212 0
    outer loop
      vertex -10.2225 -15.299 50
      vertex -10.2225 -15.299 0
      vertex -11.6728 -14.2234 50
    endloop
  endfacet
  facet normal 0.671531 0.740977 -0
    outer loop
      vertex -13.0108 -13.0108 0
      vertex -13.0108 -13.0108 50
      vertex -11.6728 -14.2234 0
    endloop
  endfacet
  facet normal 0.671531 0.740977 0
    outer loop
      vertex -11.6728 -14.2234 50
      vertex -11.6728 -14.2234 0
      vertex -13.0108 -13.0108 50
    endloop
  endfacet
  facet normal 0.740977 0.671531 -0
    outer loop
      vertex -14.2234 -11.6728 0
      vertex -14.2234 -11.6728 50
      vertex -13.0108 -13.0108 0
    endloop
  endfacet
  facet normal 0.740977 0.671531 0
    outer loop
      vertex -13.0108 -13.0108 50
      vertex -13.0108 -13.0108 0
      vertex -14.2234 -11.6728 50
    endloop
  endfacet
  facet normal 0.803212 0.595694 -0
    outer loop
      vertex -15.299 -10.2225 0
      vertex -15.299 -10.2225 50
      vertex -14.2234 -11.6728 0
    endloop
  endfacet
  facet normal 0.803212 0.595694 0
    outer loop
      vertex -14.2234 -11.6728 50
      vertex -14.2234 -11.6728 0
      vertex -15.299 -10.2225 50
    endloop
  endfacet
  facet normal 0.857734 0.514094 -0
    outer loop
      vertex -16.2273 -8.67369 0
      vertex -16.2273 -8.67369 50
      vertex -15.299 -10.2225 0
    endloop
  endfacet
  facet normal 0.857734 0.514094 0
    outer loop
      vertex -15.299 -10.2225 50
      vertex -15.299 -10.2225 0
      vertex -16.2273 -8.67369 50
    endloop
  endfacet
  facet normal 0.903974 0.427587 -0
    outer loop
      vertex -16.9994 -7.04137 0
      vertex -16.9994 -7.04137 50
      vertex -16.2273 -8.67369 0
    endloop
  endfacet
  facet normal 0.903974 0.427587 0
    outer loop
      vertex -16.2273 -8.67369 50
      vertex -16.2273 -8.67369 0
      vertex -16.9994 -7.04137 50
    endloop
  endfacet
  facet normal 0.941548 0.33688 -0
    outer loop
      vertex -17.6077 -5.34123 0
      vertex -17.6077 -5.34123 50
      vertex -16.9994 -7.04137 0
    endloop
  endfacet
  facet normal 0.941548 0.33688 0
    outer loop
      vertex -16.9994 -7.04137 50
      vertex -16.9994 -7.04137 0
      vertex -17.6077 -5.34123 50
    endloop
  endfacet
  facet normal 0.970037 0.242956 -0
    outer loop
      vertex -18.0464 -3.58966 0
      vertex -18.0464 -3.58966 50
      vertex -17.6077 -5.34123 0
    endloop
  endfacet
  facet normal 0.970037 0.242956 0
    outer loop
      vertex -17.6077 -5.34123 50
      vertex -17.6077 -5.34123 0
      vertex -18.0464 -3.58966 50
    endloop
  endfacet
  facet normal 0.989173 0.146757 -0
    outer loop
      vertex -18.3114 -1.80351 0
      vertex -18.3114 -1.80351 50
      vertex -18.0464 -3.58966 0
    endloop
  endfacet
  facet normal 0.989173 0.146757 0
    outer loop
      vertex -18.0464 -3.58966 50
      vertex -18.0464 -3.58966 0
      vertex -18.3114 -1.80351 50
    endloop
  endfacet
  facet normal 0.998795 0.0490673 -0
    outer loop
      vertex -18.4 0 0
      vertex -18.4 0 50
      vertex -18.3114 -1.80351 0
    endloop
  endfacet
  facet normal 0.998795 0.0490673 0
    outer loop
      vertex -18.3114 -1.80351 50
      vertex -18.3114 -1.80351 0
      vertex -18.4 0 50
    endloop
  endfacet
  facet normal 0.998795 -0.0490673 0
    outer loop
      vertex -18.3114 1.80351 0
      vertex -18.3114 1.80351 50
      vertex -18.4 0 0
    endloop
  endfacet
  facet normal 0.998795 -0.0490673 0
    outer loop
      vertex -18.4 0 50
      vertex -18.4 0 0
      vertex -18.3114 1.80351 50
    endloop
  endfacet
  facet normal 0.989173 -0.146757 0
    outer loop
      vertex -18.0464 3.58966 0
      vertex -18.0464 3.58966 50
      vertex -18.3114 1.80351 0
    endloop
  endfacet
  facet normal 0.989173 -0.146757 0
    outer loop
      vertex -18.3114 1.80351 50
      vertex -18.3114 1.80351 0
      vertex -18.0464 3.58966 50
    endloop
  endfacet
  facet normal 0.970037 -0.242956 0
    outer loop
      vertex -17.6077 5.34123 0
      vertex -17.6077 5.34123 50
      vertex -18.0464 3.58966 0
    endloop
  endfacet
  facet normal 0.970037 -0.242956 0
    outer loop
      vertex -18.0464 3.58966 50
      vertex -18.0464 3.58966 0
      vertex -17.6077 5.34123 50
    endloop
  endfacet
  facet normal 0.941548 -0.33688 0
    outer loop
      vertex -16.9994 7.04137 0
      vertex -16.9994 7.04137 50
      vertex -17.6077 5.34123 0
    endloop
  endfacet
  facet normal 0.941548 -0.33688 0
    outer loop
      vertex -17.6077 5.34123 50
      vertex -17.6077 5.34123 0
      vertex -16.9994 7.04137 50
    endloop
  endfacet
  facet normal 0.903974 -0.427587 0
    outer loop
      vertex -16.2273 8.67369 0
      vertex -16.2273 8.67369 50
      vertex -16.9994 7.04137 0
    endloop
  endfacet
  facet normal 0.903974 -0.427587 0
    outer loop
      vertex -16.9994 7.04137 50
      vertex -16.9994 7.04137 0
      vertex -16.2273 8.67369 50
    endloop
  endfacet
  facet normal 0.857734 -0.514094 0
    outer loop
      vertex -15.299 10.2225 0
      vertex -15.299 10.2225 50
      vertex -16.2273 8.67369 0
    endloop
  endfacet
  facet normal 0.857734 -0.514094 0
    outer loop
      vertex -16.2273 8.67369 50
      vertex -16.2273 8.67369 0
      vertex -15.299 10.2225 50
    endloop
  endfacet
  facet normal 0.803212 -0.595694 0
    outer loop
      vertex -14.2234 11.6728 0
      vertex -14.2234 11.6728 50
      vertex -15.299 10.2225 0
    endloop
  endfacet
  facet normal 0.803212 -0.595694 0
    outer loop
      vertex -15.299 10.2225 50
      vertex -15.299 10.2225 0
      vertex -14.2234 11.6728 50
    endloop
  endfacet
  facet normal 0.740977 -0.671531 0
    outer loop
      vertex -13.0108 13.0108 0
      vertex -13.0108 13.0108 50
      vertex -14.2234 11.6728 0
    endloop
  endfacet
  facet normal 0.740977 -0.671531 0
    outer loop
      vertex -14.2234 11.6728 50
      vertex -14.2234 11.6728 0
      vertex -13.0108 13.0108 50
    endloop
  endfacet
  facet normal 0.671531 -0.740977 0
    outer loop
      vertex -11.6728 14.2234 0
      vertex -11.6728 14.2234 50
      vertex -13.0108 13.0108 0
    endloop
  endfacet
  facet normal 0.671531 -0.740977 0
    outer loop
      vertex -13.0108 13.0108 50
      vertex -13.0108 13.0108 0
      vertex -11.6728 14.2234 50
    endloop
  endfacet
  facet normal 0.595694 -0.803212 0
    outer loop
      vertex -10.2225 15.299 0
      vertex -10.2225 15.299 50
      vertex -11.6728 14.2234 0
    endloop
  endfacet
  facet normal 0.595694 -0.803212 0
    outer loop
      vertex -11.6728 14.2234 50
      vertex -11.6728 14.2234 0
      vertex -10.2225 15.299 50
    endloop
  endfacet
  facet normal 0.514094 -0.857734 0
    outer loop
      vertex -8.67369 16.2273 0
      vertex -8.67369 16.2273 50
      vertex -10.2225 15.299 0
    endloop
  endfacet
  facet normal 0.514094 -0.857734 0
    outer loop
      vertex -10.2225 15.299 50
      vertex -10.2225 15.299 0
      vertex -8.67369 16.2273 50
    endloop
  endfacet
  facet normal 0.427587 -0.903974 0
    outer loop
      vertex -7.04137 16.9994 0
      vertex -7.04137 16.9994 50
      vertex -8.67369 16.2273 0
    endloop
  endfacet
  facet normal 0.427587 -0.903974 0
    outer loop
      vertex -8.67369 16.2273 50
      vertex -8.67369 16.2273 0
      vertex -7.04137 16.9994 50
    endloop
  endfacet
  facet normal 0.33688 -0.941548 0
    outer loop
      vertex -5.34123 17.6077 0
      vertex -5.34123 17.6077 50
      vertex -7.04137 16.9994 0
    endloop
  endfacet
  facet normal 0.33688 -0.941548 0
    outer loop
      vertex -7.04137 16.9994 50
      vertex -7.04137 16.9994 0
      vertex -5.34123 17.6077 50
    endloop
  endfacet
  facet normal 0.242956 -0.970037 0
    outer loop
      vertex -3.58966 18.0464 0
      vertex -3.58966 18.0464 50
      vertex -5.34123 17.6077 0
    endloop
  endfacet
  facet normal 0.242956 -0.970037 0
    outer loop
      vertex -5.34123 17.6077 50
      vertex -5.34123 17.6077 0
      vertex -3.58966 18.0464 50
    endloop
  endfacet
  facet normal 0.146757 -0.989173 0
    outer loop
      vertex -1.80351 18.3114 0
      vertex -1.80351 18.3114 50
      vertex -3.58966 18.0464 0
    endloop
  endfacet
  facet normal 0.146757 -0.989173 0
    outer loop
      vertex -3.58966 18.0464 50
      vertex -3.58966 18.0464 0
      vertex -1.80351 18.3114 50
    endloop
  endfacet
  facet normal 0.0490673 -0.998795 0
    outer loop
      vertex 0 18.4 0
      vertex 0 18.4 50
      vertex -1.80351 18.3114 0
    endloop
  endfacet
  facet normal 0.0490673 -0.998795 0
    outer loop
      vertex -1.80351 18.3114 50
      vertex -1.80351 18.3114 0
      vertex 0 18.4 50
    endloop
  endfacet
  facet normal -0.0490673 -0.998795 0
    outer loop
      vertex 1.80351 18.3114 0
      vertex 1.80351 18.3114 50
      vertex 0 18.4 0
    endloop
  endfacet
  facet normal -0.0490673 -0.998795 -0
    outer loop
      vertex 0 18.4 50
      vertex 0 18.4 0
      vertex 1.80351 18.3114 50
    endloop
  endfacet
  facet normal -0.146757 -0.989173 0
    outer loop
      vertex 3.58966 18.0464 0
      vertex 3.58966 18.0464 50
      vertex 1.80351 18.3114 0
    endloop
  endfacet
  facet normal -0.146757 -0.989173 -0
    outer loop
      vertex 1.80351 18.3114 50
      vertex 1.80351 18.3114 0
      vertex 3.58966 18.0464 50
    endloop
  endfacet
  facet normal -0.242956 -0.970037 0
    outer loop
      vertex 5.34123 17.6077 0
      vertex 5.34123 17.6077 50
      vertex 3.58966 18.0464 0
    endloop
  endfacet
  facet normal -0.242956 -0.970037 -0
    outer loop
      vertex 3.58966 18.0464 50
      vertex 3.58966 18.0464 0
      vertex 5.34123 17.6077 50
    endloop
  endfacet
  facet normal -0.33688 -0.941548 0
    outer loop
      vertex 7.04137 16.9994 0
      vertex 7.04137 16.9994 50
      vertex 5.34123 17.6077 0
    endloop
  endfacet
  facet normal -0.33688 -0.941548 -0
    outer loop
      vertex 5.34123 17.6077 50
      vertex 5.34123 17.6077 0
      vertex 7.04137 16.9994 50
    endloop
  endfacet
  facet normal -0.427587 -0.903974 0
    outer loop
      vertex 8.67369 16.2273 0
      vertex 8.67369 16.2273 50
      vertex 7.04137 16.9994 0
    endloop
  endfacet
  facet normal -0.427587 -0.903974 -0
    outer loop
      vertex 7.04137 16.9994 50
      vertex 7.04137 16.9994 0
      vertex 8.67369 16.2273 50
    endloop
  endfacet
  facet normal -0.514094 -0.857734 0
    outer loop
      vertex 10.2225 15.299 0
      vertex 10.2225 15.299 50
      vertex 8.67369 16.2273 0
    endloop
  endfacet
  facet normal -0.514094 -0.857734 -0
    outer loop
      vertex 8.67369 16.2273 50
      vertex 8.67369 16.2273 0
      vertex 10.2225 15.299 50
    endloop
  endfacet
  facet normal -0.595694 -0.803212 0
    outer loop
      vertex 11.6728 14.2234 0
      vertex 11.6728 14.2234 50
      vertex 10.2225 15.299 0
    endloop
  endfacet
  facet normal -0.595694 -0.803212 -0
    outer loop
      vertex 10.2225 15.299 50
      vertex 10.2225 15.299 0
      vertex 11.6728 14.2234 50
    endloop
  endfacet
  facet normal -0.671531 -0.740977 0
    outer loop
      vertex 13.0108 13.0108 0
      vertex 13.0108 13.0108 50
      vertex 11.6728 14.2234 0
    endloop
  endfacet
  facet normal -0.671531 -0.740977 -0
    outer loop
      vertex 11.6728 14.2234 50
      vertex 11.6728 14.2234 0
      vertex 13.0108 13.0108 50
    endloop
  endfacet
  facet normal -0.740977 -0.671531 0
    outer loop
      vertex 14.2234 11.6728 0
      vertex 14.2234 11.6728 50
      vertex 13.0108 13.0108 0
    endloop
  endfacet
  facet normal -0.740977 -0.671531 -0
    outer loop
      vertex 13.0108 13.0108 50
      vertex 13.0108 13.0108 0
      vertex 14.2234 11.6728 50
    endloop
  endfacet
  facet normal -0.803212 -0.595694 0
    outer loop
      vertex 15.299 10.2225 0
      vertex 15.299 10.2225 50
      vertex 14.2234 11.6728 0
    endloop
  endfacet
  facet normal -0.803212 -0.595694 -0
    outer loop
      vertex 14.2234 11.6728 50
      vertex 14.2234 11.6728 0
      vertex 15.299 10.2225 50
    endloop
  endfacet
  facet normal -0.857395 -0.514659 0
    outer loop
      vertex 15.3454 10.1452 0
      vertex 15.3454 10.1452 50
      vertex 15.299 10.2225 0
    endloop
  endfacet
  facet normal -0.857395 -0.514659 -0
    outer loop
      vertex 15.299 10.2225 50
      vertex 15.299 10.2225 0
      vertex 15.3454 10.1452 50
    endloop
  endfacet
  facet normal -0.741212 -0.671271 0
    outer loop
      vertex 24.5333 0 0
      vertex 24.5333 0 50
      vertex 15.3454 10.1452 0
    endloop
  endfacet
  facet normal -0.741212 -0.671271 -0
    outer loop
      vertex 15.3454 10.1452 50
      vertex 15.3454 10.1452 0
      vertex 24.5333 0 50
    endloop
  endfacet
  facet normal -0.741212 0.671271 0
    outer loop
      vertex 15.3454 -10.1452 0
      vertex 15.3454 -10.1452 50
      vertex 24.5333 0 0
    endloop
  endfacet
  facet normal -0.741212 0.671271 0
    outer loop
      vertex 24.5333 0 50
      vertex 24.5333 0 0
      vertex 15.3454 -10.1452 50
    endloop
  endfacet
  facet normal -0.857395 0.514659 0
    outer loop
      vertex 15.299 -10.2225 0
      vertex 15.299 -10.2225 50
      vertex 15.3454 -10.1452 0
    endloop
  endfacet
  facet normal -0.857395 0.514659 0
    outer loop
      vertex 15.3454 -10.1452 50
      vertex 15.3454 -10.1452 0
      vertex 15.299 -10.2225 50
    endloop
  endfacet
  facet normal -0.803212 0.595694 0
    outer loop
      vertex 14.2234 -11.6728 0
      vertex 14.2234 -11.6728 50
      vertex 15.299 -10.2225 0
    endloop
  endfacet
  facet normal -0.803212 0.595694 0
    outer loop
      vertex 15.299 -10.2225 50
      vertex 15.299 -10.2225 0
      vertex 14.2234 -11.6728 50
    endloop
  endfacet
  facet normal -0.740977 0.671531 0
    outer loop
      vertex 13.0108 -13.0108 0
      vertex 13.0108 -13.0108 50
      vertex 14.2234 -11.6728 0
    endloop
  endfacet
  facet normal -0.740977 0.671531 0
    outer loop
      vertex 14.2234 -11.6728 50
      vertex 14.2234 -11.6728 0
      vertex 13.0108 -13.0108 50
    endloop
  endfacet
  facet normal -0.671531 0.740977 0
    outer loop
      vertex 11.6728 -14.2234 0
      vertex 11.6728 -14.2234 50
      vertex 13.0108 -13.0108 0
    endloop
  endfacet
  facet normal -0.671531 0.740977 0
    outer loop
      vertex 13.0108 -13.0108 50
      vertex 13.0108 -13.0108 0
      vertex 11.6728 -14.2234 50
    endloop
  endfacet
  facet normal -0.595694 0.803212 0
    outer loop
      vertex 10.2225 -15.299 0
      vertex 10.2225 -15.299 50
      vertex 11.6728 -14.2234 0
    endloop
  endfacet
  facet normal -0.595694 0.803212 0
    outer loop
      vertex 11.6728 -14.2234 50
      vertex 11.6728 -14.2234 0
      vertex 10.2225 -15.299 50
    endloop
  endfacet
  facet normal -0.514094 0.857734 0
    outer loop
      vertex 8.67369 -16.2273 0
      vertex 8.67369 -16.2273 50
      vertex 10.2225 -15.299 0
    endloop
  endfacet
  facet normal -0.514094 0.857734 0
    outer loop
      vertex 10.2225 -15.299 50
      vertex 10.2225 -15.299 0
      vertex 8.67369 -16.2273 50
    endloop
  endfacet
  facet normal -0.427587 0.903974 0
    outer loop
      vertex 7.04137 -16.9994 0
      vertex 7.04137 -16.9994 50
      vertex 8.67369 -16.2273 0
    endloop
  endfacet
  facet normal -0.427587 0.903974 0
    outer loop
      vertex 8.67369 -16.2273 50
      vertex 8.67369 -16.2273 0
      vertex 7.04137 -16.9994 50
    endloop
  endfacet
  facet normal -0.33688 0.941548 0
    outer loop
      vertex 5.34123 -17.6077 0
      vertex 5.34123 -17.6077 50
      vertex 7.04137 -16.9994 0
    endloop
  endfacet
  facet normal -0.33688 0.941548 0
    outer loop
      vertex 7.04137 -16.9994 50
      vertex 7.04137 -16.9994 0
      vertex 5.34123 -17.6077 50
    endloop
  endfacet
  facet normal -0.242956 0.970037 0
    outer loop
      vertex 3.58966 -18.0464 0
      vertex 3.58966 -18.0464 50
      vertex 5.34123 -17.6077 0
    endloop
  endfacet
  facet normal -0.242956 0.970037 0
    outer loop
      vertex 5.34123 -17.6077 50
      vertex 5.34123 -17.6077 0
      vertex 3.58966 -18.0464 50
    endloop
  endfacet
  facet normal -0.146757 0.989173 0
    outer loop
      vertex 1.80351 -18.3114 0
      vertex 1.80351 -18.3114 50
      vertex 3.58966 -18.0464 0
    endloop
  endfacet
  facet normal -0.146757 0.989173 0
    outer loop
      vertex 3.58966 -18.0464 50
      vertex 3.58966 -18.0464 0
      vertex 1.80351 -18.3114 50
    endloop
  endfacet
  facet normal -0.0490673 0.998795 0
    outer loop
      vertex 0 -18.4 0
      vertex 0 -18.4 50
      vertex 1.80351 -18.3114 0
    endloop
  endfacet
  facet normal -0.0490673 0.998795 0
    outer loop
      vertex 1.80351 -18.3114 50
      vertex 1.80351 -18.3114 0
      vertex 0 -18.4 50
    endloop
  endfacet
  facet normal 0.0490673 0.998795 -0
    outer loop
      vertex -1.80351 -18.3114 0
      vertex -1.80351 -18.3114 50
      vertex 0 -18.4 0
    endloop
  endfacet
  facet normal 0.0490673 0.998795 0
    outer loop
      vertex 0 -18.4 50
      vertex 0 -18.4 0
      vertex -1.80351 -18.3114 50
    endloop
  endfacet
endsolid OpenSCAD_Model
